<svg width="25" height="25" viewBox="0 0 25 25" fill="none" xmlns="http://www.w3.org/2000/svg">
<g clip-path="url(#clip0_3_426)">
<path d="M4.97131 10.6982C3.9778 10.6982 3.16956 11.5065 3.16956 12.5C3.16956 13.4935 3.97789 14.3018 4.97131 14.3018C5.96472 14.3018 6.77306 13.4935 6.77306 12.5C6.77306 11.5065 5.96472 10.6982 4.97131 10.6982ZM4.97131 13.049C4.66862 13.049 4.4224 12.8027 4.4224 12.5C4.4224 12.1973 4.66862 11.951 4.97131 11.951C5.27399 11.951 5.52022 12.1973 5.52022 12.5C5.52022 12.8027 5.27399 13.049 4.97131 13.049Z" fill="black"/>
<path d="M24.8353 12.5872L23.227 10.5766C23.0843 10.3983 22.8683 10.2945 22.64 10.2945H12.6513C11.7538 7.73553 9.30625 5.99509 6.50482 5.99509C2.91811 5.99509 0 8.9132 0 12.5C0 16.0868 2.91811 19.0049 6.50482 19.0049C8.88655 19.0049 11.0038 17.7959 12.1415 15.8189H13.9076L15.4181 17.3834C15.5676 17.5383 15.777 17.6207 15.9915 17.6123C16.2065 17.6029 16.4073 17.5018 16.5429 17.3345L17.4758 16.1833L18.7106 17.3973C19.0012 17.6831 19.4669 17.685 19.7599 17.4017L21.3973 15.8189H22.64C22.8683 15.8189 23.0843 15.7151 23.227 15.5368L24.8353 13.5263C25.0549 13.2519 25.0549 12.8617 24.8353 12.5872ZM22.2786 14.3155H21.0934C20.8984 14.3155 20.7111 14.3913 20.5709 14.5268L19.2419 15.8114L17.9396 14.5311C17.7883 14.3826 17.5821 14.3051 17.3702 14.3166C17.1586 14.3286 16.9619 14.4293 16.8286 14.5939L15.9096 15.728L14.7675 14.545C14.6258 14.3984 14.4306 14.3154 14.2266 14.3154H11.6881C11.3987 14.3154 11.1351 14.4816 11.0101 14.7427C10.1957 16.4444 8.46935 17.5014 6.50482 17.5014C3.74699 17.5015 1.50341 15.2578 1.50341 12.5C1.50341 9.74216 3.74699 7.49849 6.50482 7.49849C8.81798 7.49849 10.8157 9.03214 11.3631 11.228C11.4465 11.5629 11.7474 11.7979 12.0924 11.7979H22.2786L23.2857 13.0568L22.2786 14.3155Z" fill="black"/>
</g>
<defs>
<clipPath id="clip0_3_426">
<rect width="25" height="25" fill="white"/>
</clipPath>
</defs>
</svg>
