<svg width="24" height="24" viewBox="0 0 24 24" fill="none" xmlns="http://www.w3.org/2000/svg">
<path d="M21.6503 9.21609L14.2515 9.21529L14.2511 2.34974C14.2515 1.05202 13.1991 0 11.9014 0C10.6041 0 9.55205 1.05202 9.55205 2.34974V9.21569L2.34974 9.21529C1.05202 9.21569 0 10.2677 0 11.565C0.000795176 12.8628 1.05202 13.9144 2.34974 13.9144H9.55205V21.6503C9.55205 22.9492 10.6041 24 11.9018 24C13.1995 24 14.2511 22.948 14.2515 21.6511V13.9144H21.6511C22.948 13.9144 24 12.8628 24 11.5658C24.0012 10.2673 22.948 9.21529 21.6503 9.21609Z" fill="black"/>
</svg>
