<svg width="24" height="24" viewBox="0 0 24 24" fill="none" xmlns="http://www.w3.org/2000/svg">
<path d="M22.9256 17.6083L19.4141 14.0969C19.9215 12.8756 20.1853 11.5628 20.1853 10.2266C20.1853 4.66168 15.6578 0.134125 10.0925 0.134125C4.52755 0.134125 0 4.66168 0 10.2266C0 15.7919 4.52755 20.3194 10.0925 20.3194C11.5738 20.3194 13.0146 19.9997 14.336 19.385L17.7428 22.7921C18.4354 23.4847 19.3555 23.8659 20.3349 23.8659C21.3143 23.8659 22.235 23.4844 22.9273 22.7914C23.6189 22.1002 24 21.1798 24 20.2004C23.9997 19.2217 23.6185 18.3009 22.9256 17.6083ZM21.4707 21.3369C21.1572 21.6508 20.7458 21.8076 20.3345 21.8076C19.9232 21.8076 19.5122 21.6508 19.198 21.3369L14.6818 16.82C13.3803 17.7277 11.7991 18.2611 10.0925 18.2611C5.65515 18.2611 2.05829 14.6639 2.05829 10.2266C2.05829 5.78928 5.65515 2.19241 10.0925 2.19241C14.5298 2.19241 18.127 5.78928 18.127 10.2266C18.127 11.7943 17.6762 13.2564 16.8996 14.4934L21.4707 19.0646C22.0985 19.692 22.0985 20.7095 21.4707 21.3369Z" fill="black"/>
<path d="M10.0925 4.48056C6.92447 4.48056 4.3468 7.05822 4.3468 10.2266C4.3468 13.395 6.92447 15.9727 10.0925 15.9727C13.2609 15.9727 15.8386 13.395 15.8386 10.2266C15.8386 7.05822 13.2609 4.48056 10.0925 4.48056ZM10.0925 13.9144C8.05927 13.9144 6.40509 12.2602 6.40509 10.2266C6.40509 8.19303 8.05927 6.53885 10.0925 6.53885C12.1261 6.53885 13.7803 8.19303 13.7803 10.2266C13.7803 12.2602 12.1261 13.9144 10.0925 13.9144Z" fill="black"/>
</svg>
