<svg width="20" height="24" viewBox="0 0 20 24" fill="none" xmlns="http://www.w3.org/2000/svg">
<path d="M9.99997 1.5C12.4321 1.5 14.4108 3.46149 14.4108 5.87251C14.4108 8.28353 12.4321 10.2451 9.99997 10.2451C7.56784 10.2451 5.58911 8.28353 5.58911 5.87256C5.58911 3.46158 7.56784 1.5 9.99997 1.5ZM9.99997 0C6.73548 0 4.08911 2.62922 4.08911 5.87251C4.08911 9.11579 6.73548 11.7451 9.99997 11.7451C13.2645 11.7451 15.9108 9.11584 15.9108 5.87256C15.9108 2.62927 13.2645 0 9.99997 0Z" fill="black"/>
<path d="M13.7015 14.5829C14.1463 14.5922 17.5525 14.7708 17.5525 18.03V22.5H2.44756V18.03C2.44756 14.8293 5.6644 14.5968 6.28477 14.5829H13.7015ZM13.7153 13.0829H6.28472C6.28472 13.0829 0.94751 13.1422 0.94751 18.03C0.94751 22.8882 0.94751 24 0.94751 24H19.0525C19.0525 24 19.0525 22.8882 19.0525 18.03C19.0525 13.1717 13.7153 13.0829 13.7153 13.0829Z" fill="black"/>
</svg>
