<svg width="151" height="90" viewBox="0 0 151 90" fill="none" xmlns="http://www.w3.org/2000/svg">
<path d="M10.0495 47H3.32291V13.3906H26.8542V20.1172H10.0495V26.8438H20.1276V33.5703H10.0495V47ZM56.4974 33.5703C56.4974 35.4297 56.1458 37.1797 55.4427 38.8203C54.7396 40.4453 53.7786 41.8672 52.5599 43.0859C51.3411 44.2891 49.9115 45.2422 48.2708 45.9453C46.6458 46.6484 44.9036 47 43.0443 47C41.1849 47 39.4349 46.6484 37.7943 45.9453C36.1693 45.2422 34.7474 44.2891 33.5286 43.0859C32.3255 41.8672 31.3724 40.4453 30.6693 38.8203C29.9661 37.1797 29.6146 35.4297 29.6146 33.5703V13.3906H36.3177V33.5703C36.3177 34.4922 36.4896 35.3594 36.8333 36.1719C37.1927 36.9844 37.6771 37.6953 38.2865 38.3047C38.8958 38.9141 39.6068 39.3984 40.4193 39.7578C41.2474 40.1016 42.1224 40.2734 43.0443 40.2734C43.9661 40.2734 44.8333 40.1016 45.6458 39.7578C46.474 39.3984 47.1927 38.9141 47.8021 38.3047C48.4115 37.6953 48.888 36.9844 49.2318 36.1719C49.5911 35.3594 49.7708 34.4922 49.7708 33.5703V13.3906H56.4974V33.5703ZM88.9297 30.1953C88.9297 31.7422 88.7266 33.2344 88.3203 34.6719C87.9297 36.0938 87.3672 37.4297 86.6328 38.6797C85.8984 39.9141 85.0234 41.0469 84.0078 42.0781C82.9922 43.0938 81.8594 43.9688 80.6094 44.7031C79.3594 45.4375 78.0156 46.0078 76.5781 46.4141C75.1562 46.8047 73.6719 47 72.125 47H62V13.3906H72.125C73.6719 13.3906 75.1562 13.5938 76.5781 14C78.0156 14.3906 79.3594 14.9531 80.6094 15.6875C81.8594 16.4219 82.9922 17.3047 84.0078 18.3359C85.0234 19.3516 85.8984 20.4844 86.6328 21.7344C87.3672 22.9688 87.9297 24.3047 88.3203 25.7422C88.7266 27.1641 88.9297 28.6484 88.9297 30.1953ZM82.2031 30.1953C82.2031 28.8047 81.9375 27.5 81.4062 26.2812C80.8906 25.0625 80.1719 24 79.25 23.0938C78.3437 22.1719 77.2734 21.4453 76.0391 20.9141C74.8203 20.3828 73.5156 20.1172 72.125 20.1172H68.7734V40.2734H72.125C73.5156 40.2734 74.8203 40.0156 76.0391 39.5C77.2734 38.9688 78.3437 38.25 79.25 37.3438C80.1719 36.4219 80.8906 35.3516 81.4062 34.1328C81.9375 32.8984 82.2031 31.5859 82.2031 30.1953ZM120.003 30.1953C120.003 31.7422 119.799 33.2344 119.393 34.6719C119.003 36.0938 118.44 37.4297 117.706 38.6797C116.971 39.9141 116.096 41.0469 115.081 42.0781C114.065 43.0938 112.932 43.9688 111.682 44.7031C110.432 45.4375 109.089 46.0078 107.651 46.4141C106.229 46.8047 104.745 47 103.198 47H93.0729V13.3906H103.198C104.745 13.3906 106.229 13.5938 107.651 14C109.089 14.3906 110.432 14.9531 111.682 15.6875C112.932 16.4219 114.065 17.3047 115.081 18.3359C116.096 19.3516 116.971 20.4844 117.706 21.7344C118.44 22.9688 119.003 24.3047 119.393 25.7422C119.799 27.1641 120.003 28.6484 120.003 30.1953ZM113.276 30.1953C113.276 28.8047 113.01 27.5 112.479 26.2812C111.964 25.0625 111.245 24 110.323 23.0938C109.417 22.1719 108.346 21.4453 107.112 20.9141C105.893 20.3828 104.589 20.1172 103.198 20.1172H99.8464V40.2734H103.198C104.589 40.2734 105.893 40.0156 107.112 39.5C108.346 38.9688 109.417 38.25 110.323 37.3438C111.245 36.4219 111.964 35.3516 112.479 34.1328C113.01 32.8984 113.276 31.5859 113.276 30.1953ZM139.263 47H132.56V36.4766C131.076 36.1016 129.708 35.5 128.458 34.6719C127.224 33.8438 126.161 32.8594 125.271 31.7188C124.38 30.5625 123.685 29.2891 123.185 27.8984C122.701 26.4922 122.458 25.0156 122.458 23.4688V13.3906H129.185V23.4688C129.185 24.3906 129.357 25.2656 129.701 26.0938C130.06 26.9062 130.544 27.6172 131.154 28.2266C131.763 28.8359 132.474 29.3203 133.286 29.6797C134.115 30.0234 134.99 30.1953 135.911 30.1953C136.833 30.1953 137.701 30.0234 138.513 29.6797C139.341 29.3203 140.06 28.8359 140.669 28.2266C141.279 27.6172 141.755 26.9062 142.099 26.0938C142.458 25.2656 142.638 24.3906 142.638 23.4688V13.3906H149.341V23.4688C149.341 25.0156 149.091 26.4922 148.591 27.8984C148.107 29.2891 147.419 30.5625 146.529 31.7188C145.638 32.8594 144.576 33.8438 143.341 34.6719C142.107 35.5 140.747 36.1016 139.263 36.4766V47Z" fill="black"/>
<path d="M31.3677 74.242L28.1897 80.318V84H26.9157V80.318L23.7237 74.242H25.1377L27.5457 79.184L29.9537 74.242H31.3677ZM35.7241 84.126C35.0055 84.126 34.3521 83.9627 33.7641 83.636C33.1855 83.3093 32.7281 82.8473 32.3921 82.25C32.0655 81.6433 31.9021 80.9433 31.9021 80.15C31.9021 79.366 32.0701 78.6753 32.4061 78.078C32.7515 77.4713 33.2181 77.0093 33.8061 76.692C34.3941 76.3653 35.0521 76.202 35.7801 76.202C36.5081 76.202 37.1661 76.3653 37.7541 76.692C38.3421 77.0093 38.8041 77.4667 39.1401 78.064C39.4855 78.6613 39.6581 79.3567 39.6581 80.15C39.6581 80.9433 39.4808 81.6433 39.1261 82.25C38.7808 82.8473 38.3095 83.3093 37.7121 83.636C37.1148 83.9627 36.4521 84.126 35.7241 84.126ZM35.7241 83.006C36.1815 83.006 36.6108 82.8987 37.0121 82.684C37.4135 82.4693 37.7355 82.1473 37.9781 81.718C38.2301 81.2887 38.3561 80.766 38.3561 80.15C38.3561 79.534 38.2348 79.0113 37.9921 78.582C37.7495 78.1527 37.4321 77.8353 37.0401 77.63C36.6481 77.4153 36.2235 77.308 35.7661 77.308C35.2995 77.308 34.8701 77.4153 34.4781 77.63C34.0955 77.8353 33.7875 78.1527 33.5541 78.582C33.3208 79.0113 33.2041 79.534 33.2041 80.15C33.2041 80.7753 33.3161 81.3027 33.5401 81.732C33.7735 82.1613 34.0815 82.4833 34.4641 82.698C34.8468 82.9033 35.2668 83.006 35.7241 83.006ZM47.8039 76.328V84H46.5299V82.866C46.2872 83.258 45.9465 83.566 45.5079 83.79C45.0785 84.0047 44.6025 84.112 44.0799 84.112C43.4825 84.112 42.9459 83.9907 42.4699 83.748C41.9939 83.496 41.6159 83.1227 41.3359 82.628C41.0652 82.1333 40.9299 81.5313 40.9299 80.822V76.328H42.1899V80.654C42.1899 81.41 42.3812 81.9933 42.7639 82.404C43.1465 82.8053 43.6692 83.006 44.3319 83.006C45.0132 83.006 45.5499 82.796 45.9419 82.376C46.3339 81.956 46.5299 81.3447 46.5299 80.542V76.328H47.8039ZM50.8956 77.574C51.1196 77.1353 51.437 76.7947 51.8476 76.552C52.2676 76.3093 52.7763 76.188 53.3736 76.188V77.504H53.0376C51.6096 77.504 50.8956 78.2787 50.8956 79.828V84H49.6216V76.328H50.8956V77.574ZM61.032 77.378H59.422V84H58.148V77.378H57.154V76.328H58.148V75.782C58.148 74.9233 58.3674 74.298 58.806 73.906C59.254 73.5047 59.968 73.304 60.948 73.304V74.368C60.388 74.368 59.9914 74.48 59.758 74.704C59.534 74.9187 59.422 75.278 59.422 75.782V76.328H61.032V77.378ZM65.5301 84.126C64.8115 84.126 64.1581 83.9627 63.5701 83.636C62.9915 83.3093 62.5341 82.8473 62.1981 82.25C61.8715 81.6433 61.7081 80.9433 61.7081 80.15C61.7081 79.366 61.8761 78.6753 62.2121 78.078C62.5575 77.4713 63.0241 77.0093 63.6121 76.692C64.2001 76.3653 64.8581 76.202 65.5861 76.202C66.3141 76.202 66.9721 76.3653 67.5601 76.692C68.1481 77.0093 68.6101 77.4667 68.9461 78.064C69.2915 78.6613 69.4641 79.3567 69.4641 80.15C69.4641 80.9433 69.2868 81.6433 68.9321 82.25C68.5868 82.8473 68.1155 83.3093 67.5181 83.636C66.9208 83.9627 66.2581 84.126 65.5301 84.126ZM65.5301 83.006C65.9875 83.006 66.4168 82.8987 66.8181 82.684C67.2195 82.4693 67.5415 82.1473 67.7841 81.718C68.0361 81.2887 68.1621 80.766 68.1621 80.15C68.1621 79.534 68.0408 79.0113 67.7981 78.582C67.5555 78.1527 67.2381 77.8353 66.8461 77.63C66.4541 77.4153 66.0295 77.308 65.5721 77.308C65.1055 77.308 64.6761 77.4153 64.2841 77.63C63.9015 77.8353 63.5935 78.1527 63.3601 78.582C63.1268 79.0113 63.0101 79.534 63.0101 80.15C63.0101 80.7753 63.1221 81.3027 63.3461 81.732C63.5795 82.1613 63.8875 82.4833 64.2701 82.698C64.6528 82.9033 65.0728 83.006 65.5301 83.006ZM74.1519 84.126C73.4332 84.126 72.7799 83.9627 72.1919 83.636C71.6132 83.3093 71.1559 82.8473 70.8199 82.25C70.4932 81.6433 70.3299 80.9433 70.3299 80.15C70.3299 79.366 70.4979 78.6753 70.8339 78.078C71.1792 77.4713 71.6459 77.0093 72.2339 76.692C72.8219 76.3653 73.4799 76.202 74.2079 76.202C74.9359 76.202 75.5939 76.3653 76.1819 76.692C76.7699 77.0093 77.2319 77.4667 77.5679 78.064C77.9132 78.6613 78.0859 79.3567 78.0859 80.15C78.0859 80.9433 77.9085 81.6433 77.5539 82.25C77.2085 82.8473 76.7372 83.3093 76.1399 83.636C75.5425 83.9627 74.8799 84.126 74.1519 84.126ZM74.1519 83.006C74.6092 83.006 75.0385 82.8987 75.4399 82.684C75.8412 82.4693 76.1632 82.1473 76.4059 81.718C76.6579 81.2887 76.7839 80.766 76.7839 80.15C76.7839 79.534 76.6625 79.0113 76.4199 78.582C76.1772 78.1527 75.8599 77.8353 75.4679 77.63C75.0759 77.4153 74.6512 77.308 74.1939 77.308C73.7272 77.308 73.2979 77.4153 72.9059 77.63C72.5232 77.8353 72.2152 78.1527 71.9819 78.582C71.7485 79.0113 71.6319 79.534 71.6319 80.15C71.6319 80.7753 71.7439 81.3027 71.9679 81.732C72.2012 82.1613 72.5092 82.4833 72.8919 82.698C73.2745 82.9033 73.6945 83.006 74.1519 83.006ZM78.9516 80.136C78.9516 79.352 79.1103 78.666 79.4276 78.078C79.7449 77.4807 80.1789 77.0187 80.7296 76.692C81.2896 76.3653 81.9149 76.202 82.6056 76.202C83.2029 76.202 83.7583 76.342 84.2716 76.622C84.7849 76.8927 85.1769 77.252 85.4476 77.7V73.64H86.7356V84H85.4476V82.558C85.1956 83.0153 84.8223 83.3933 84.3276 83.692C83.8329 83.9813 83.2543 84.126 82.5916 84.126C81.9103 84.126 81.2896 83.958 80.7296 83.622C80.1789 83.286 79.7449 82.8147 79.4276 82.208C79.1103 81.6013 78.9516 80.9107 78.9516 80.136ZM85.4476 80.15C85.4476 79.5713 85.3309 79.0673 85.0976 78.638C84.8643 78.2087 84.5469 77.882 84.1456 77.658C83.7536 77.4247 83.3196 77.308 82.8436 77.308C82.3676 77.308 81.9336 77.42 81.5416 77.644C81.1496 77.868 80.8369 78.1947 80.6036 78.624C80.3703 79.0533 80.2536 79.5573 80.2536 80.136C80.2536 80.724 80.3703 81.2373 80.6036 81.676C80.8369 82.1053 81.1496 82.4367 81.5416 82.67C81.9336 82.894 82.3676 83.006 82.8436 83.006C83.3196 83.006 83.7536 82.894 84.1456 82.67C84.5469 82.4367 84.8643 82.1053 85.0976 81.676C85.3309 81.2373 85.4476 80.7287 85.4476 80.15ZM101.18 76.188C101.778 76.188 102.31 76.314 102.776 76.566C103.243 76.8087 103.612 77.1773 103.882 77.672C104.153 78.1667 104.288 78.7687 104.288 79.478V84H103.028V79.66C103.028 78.8947 102.837 78.3113 102.454 77.91C102.081 77.4993 101.572 77.294 100.928 77.294C100.266 77.294 99.7383 77.5087 99.3463 77.938C98.9543 78.358 98.7583 78.9693 98.7583 79.772V84H97.4983V79.66C97.4983 78.8947 97.307 78.3113 96.9243 77.91C96.551 77.4993 96.0423 77.294 95.3983 77.294C94.7356 77.294 94.2083 77.5087 93.8163 77.938C93.4243 78.358 93.2283 78.9693 93.2283 79.772V84H91.9543V76.328H93.2283V77.434C93.4803 77.0327 93.8163 76.7247 94.2363 76.51C94.6656 76.2953 95.137 76.188 95.6503 76.188C96.2943 76.188 96.8636 76.3327 97.3583 76.622C97.853 76.9113 98.2216 77.336 98.4643 77.896C98.679 77.3547 99.0336 76.9347 99.5283 76.636C100.023 76.3373 100.574 76.188 101.18 76.188ZM105.569 80.136C105.569 79.352 105.727 78.666 106.045 78.078C106.362 77.4807 106.796 77.0187 107.347 76.692C107.907 76.3653 108.527 76.202 109.209 76.202C109.881 76.202 110.464 76.3467 110.959 76.636C111.453 76.9253 111.822 77.2893 112.065 77.728V76.328H113.353V84H112.065V82.572C111.813 83.02 111.435 83.3933 110.931 83.692C110.436 83.9813 109.857 84.126 109.195 84.126C108.513 84.126 107.897 83.958 107.347 83.622C106.796 83.286 106.362 82.8147 106.045 82.208C105.727 81.6013 105.569 80.9107 105.569 80.136ZM112.065 80.15C112.065 79.5713 111.948 79.0673 111.715 78.638C111.481 78.2087 111.164 77.882 110.763 77.658C110.371 77.4247 109.937 77.308 109.461 77.308C108.985 77.308 108.551 77.42 108.159 77.644C107.767 77.868 107.454 78.1947 107.221 78.624C106.987 79.0533 106.871 79.5573 106.871 80.136C106.871 80.724 106.987 81.2373 107.221 81.676C107.454 82.1053 107.767 82.4367 108.159 82.67C108.551 82.894 108.985 83.006 109.461 83.006C109.937 83.006 110.371 82.894 110.763 82.67C111.164 82.4367 111.481 82.1053 111.715 81.676C111.948 81.2373 112.065 80.7287 112.065 80.15ZM116.726 77.378V81.9C116.726 82.2733 116.806 82.5393 116.964 82.698C117.123 82.8473 117.398 82.922 117.79 82.922H118.728V84H117.58C116.871 84 116.339 83.8367 115.984 83.51C115.63 83.1833 115.452 82.6467 115.452 81.9V77.378H114.458V76.328H115.452V74.396H116.726V76.328H118.728V77.378H116.726ZM126.939 79.87C126.939 80.1127 126.925 80.3693 126.897 80.64H120.765C120.811 81.396 121.068 81.9887 121.535 82.418C122.011 82.838 122.585 83.048 123.257 83.048C123.807 83.048 124.265 82.922 124.629 82.67C125.002 82.4087 125.263 82.0633 125.413 81.634H126.785C126.579 82.3713 126.169 82.9733 125.553 83.44C124.937 83.8973 124.171 84.126 123.257 84.126C122.529 84.126 121.875 83.9627 121.297 83.636C120.727 83.3093 120.279 82.8473 119.953 82.25C119.626 81.6433 119.463 80.9433 119.463 80.15C119.463 79.3567 119.621 78.6613 119.939 78.064C120.256 77.4667 120.699 77.0093 121.269 76.692C121.847 76.3653 122.51 76.202 123.257 76.202C123.985 76.202 124.629 76.3607 125.189 76.678C125.749 76.9953 126.178 77.434 126.477 77.994C126.785 78.5447 126.939 79.17 126.939 79.87ZM125.623 79.604C125.623 79.1187 125.515 78.7033 125.301 78.358C125.086 78.0033 124.792 77.7373 124.419 77.56C124.055 77.3733 123.649 77.28 123.201 77.28C122.557 77.28 122.006 77.4853 121.549 77.896C121.101 78.3067 120.844 78.876 120.779 79.604H125.623Z" fill="black"/>
</svg>
