<svg width="151" height="60" viewBox="0 0 151 60" fill="none" xmlns="http://www.w3.org/2000/svg">
<path d="M10.0495 47H3.32291V13.3906H26.8542V20.1172H10.0495V26.8438H20.1276V33.5703H10.0495V47ZM56.4974 33.5703C56.4974 35.4297 56.1458 37.1797 55.4427 38.8203C54.7396 40.4453 53.7786 41.8672 52.5599 43.0859C51.3411 44.2891 49.9115 45.2422 48.2708 45.9453C46.6458 46.6484 44.9036 47 43.0443 47C41.1849 47 39.4349 46.6484 37.7943 45.9453C36.1693 45.2422 34.7474 44.2891 33.5286 43.0859C32.3255 41.8672 31.3724 40.4453 30.6693 38.8203C29.9661 37.1797 29.6146 35.4297 29.6146 33.5703V13.3906H36.3177V33.5703C36.3177 34.4922 36.4896 35.3594 36.8333 36.1719C37.1927 36.9844 37.6771 37.6953 38.2865 38.3047C38.8958 38.9141 39.6068 39.3984 40.4193 39.7578C41.2474 40.1016 42.1224 40.2734 43.0443 40.2734C43.9661 40.2734 44.8333 40.1016 45.6458 39.7578C46.474 39.3984 47.1927 38.9141 47.8021 38.3047C48.4115 37.6953 48.888 36.9844 49.2318 36.1719C49.5911 35.3594 49.7708 34.4922 49.7708 33.5703V13.3906H56.4974V33.5703ZM88.9297 30.1953C88.9297 31.7422 88.7266 33.2344 88.3203 34.6719C87.9297 36.0938 87.3672 37.4297 86.6328 38.6797C85.8984 39.9141 85.0234 41.0469 84.0078 42.0781C82.9922 43.0938 81.8594 43.9688 80.6094 44.7031C79.3594 45.4375 78.0156 46.0078 76.5781 46.4141C75.1562 46.8047 73.6719 47 72.125 47H62V13.3906H72.125C73.6719 13.3906 75.1562 13.5938 76.5781 14C78.0156 14.3906 79.3594 14.9531 80.6094 15.6875C81.8594 16.4219 82.9922 17.3047 84.0078 18.3359C85.0234 19.3516 85.8984 20.4844 86.6328 21.7344C87.3672 22.9688 87.9297 24.3047 88.3203 25.7422C88.7266 27.1641 88.9297 28.6484 88.9297 30.1953ZM82.2031 30.1953C82.2031 28.8047 81.9375 27.5 81.4062 26.2812C80.8906 25.0625 80.1719 24 79.25 23.0938C78.3437 22.1719 77.2734 21.4453 76.0391 20.9141C74.8203 20.3828 73.5156 20.1172 72.125 20.1172H68.7734V40.2734H72.125C73.5156 40.2734 74.8203 40.0156 76.0391 39.5C77.2734 38.9688 78.3437 38.25 79.25 37.3438C80.1719 36.4219 80.8906 35.3516 81.4062 34.1328C81.9375 32.8984 82.2031 31.5859 82.2031 30.1953ZM120.003 30.1953C120.003 31.7422 119.799 33.2344 119.393 34.6719C119.003 36.0938 118.44 37.4297 117.706 38.6797C116.971 39.9141 116.096 41.0469 115.081 42.0781C114.065 43.0938 112.932 43.9688 111.682 44.7031C110.432 45.4375 109.089 46.0078 107.651 46.4141C106.229 46.8047 104.745 47 103.198 47H93.0729V13.3906H103.198C104.745 13.3906 106.229 13.5938 107.651 14C109.089 14.3906 110.432 14.9531 111.682 15.6875C112.932 16.4219 114.065 17.3047 115.081 18.3359C116.096 19.3516 116.971 20.4844 117.706 21.7344C118.44 22.9688 119.003 24.3047 119.393 25.7422C119.799 27.1641 120.003 28.6484 120.003 30.1953ZM113.276 30.1953C113.276 28.8047 113.01 27.5 112.479 26.2812C111.964 25.0625 111.245 24 110.323 23.0938C109.417 22.1719 108.346 21.4453 107.112 20.9141C105.893 20.3828 104.589 20.1172 103.198 20.1172H99.8464V40.2734H103.198C104.589 40.2734 105.893 40.0156 107.112 39.5C108.346 38.9688 109.417 38.25 110.323 37.3438C111.245 36.4219 111.964 35.3516 112.479 34.1328C113.01 32.8984 113.276 31.5859 113.276 30.1953ZM139.263 47H132.56V36.4766C131.076 36.1016 129.708 35.5 128.458 34.6719C127.224 33.8438 126.161 32.8594 125.271 31.7188C124.38 30.5625 123.685 29.2891 123.185 27.8984C122.701 26.4922 122.458 25.0156 122.458 23.4688V13.3906H129.185V23.4688C129.185 24.3906 129.357 25.2656 129.701 26.0938C130.06 26.9062 130.544 27.6172 131.154 28.2266C131.763 28.8359 132.474 29.3203 133.286 29.6797C134.115 30.0234 134.99 30.1953 135.911 30.1953C136.833 30.1953 137.701 30.0234 138.513 29.6797C139.341 29.3203 140.06 28.8359 140.669 28.2266C141.279 27.6172 141.755 26.9062 142.099 26.0938C142.458 25.2656 142.638 24.3906 142.638 23.4688V13.3906H149.341V23.4688C149.341 25.0156 149.091 26.4922 148.591 27.8984C148.107 29.2891 147.419 30.5625 146.529 31.7188C145.638 32.8594 144.576 33.8438 143.341 34.6719C142.107 35.5 140.747 36.1016 139.263 36.4766V47Z" fill="#621651"/>
</svg>
