<svg width="40" height="40" viewBox="0 0 40 40" fill="none" xmlns="http://www.w3.org/2000/svg">
<path d="M37.7997 2.20029C36.3322 0.732754 34.5663 -1.52588e-05 32.5001 -1.52588e-05H7.49988C5.43371 -1.52588e-05 3.66786 0.732754 2.20032 2.20029C0.732776 3.66784 6.29268e-06 5.43369 6.29268e-06 7.49986V32.5001C6.29268e-06 34.5663 0.732776 36.3321 2.20032 37.7997C3.66786 39.2672 5.43371 40 7.49988 40H13.334C13.7144 40 14.0007 39.986 14.1929 39.9599C14.4165 39.9151 14.6184 39.7958 14.7655 39.6216C14.9557 39.4214 15.0518 39.1311 15.0518 38.7507L15.0378 36.9788C15.0298 35.8496 15.0258 34.9567 15.0258 34.296L14.4252 34.4001C14.0448 34.4702 13.5642 34.5002 12.9816 34.4922C12.3744 34.481 11.769 34.4201 11.1717 34.31C10.5359 34.1926 9.9373 33.9249 9.4259 33.5292C8.89033 33.124 8.49087 32.5653 8.2807 31.9275L8.02043 31.3269C7.80105 30.8531 7.52545 30.4074 7.19957 29.9995C6.82717 29.513 6.44878 29.1846 6.06638 29.0104L5.88619 28.8803C5.76054 28.7903 5.64626 28.6854 5.54583 28.568C5.44991 28.459 5.37095 28.3361 5.31158 28.2036C5.25953 28.0815 5.30357 27.9814 5.44172 27.9033C5.58187 27.8232 5.83213 27.7852 6.19851 27.7852L6.71906 27.8652C7.06542 27.9333 7.49588 28.1415 8.00641 28.4879C8.52308 28.8401 8.95467 29.3032 9.26974 29.8433C9.67016 30.5541 10.1507 31.0966 10.7153 31.471C11.2799 31.8434 11.8484 32.0316 12.421 32.0316C12.9936 32.0316 13.4882 31.9876 13.9066 31.9015C14.3113 31.8178 14.7045 31.6861 15.0778 31.5091C15.234 30.3478 15.6584 29.4509 16.3532 28.8263C15.453 28.738 14.5608 28.5814 13.6844 28.3578C12.8291 28.1228 12.0065 27.7818 11.2358 27.3427C10.4294 26.9037 9.71722 26.3105 9.1396 25.5969C8.58502 24.9021 8.12854 23.9912 7.77217 22.864C7.41779 21.7348 7.23961 20.4314 7.23961 18.9559C7.23961 16.8557 7.92433 15.0678 9.29577 13.5903C8.65509 12.0126 8.71516 10.2407 9.47796 8.28068C9.98249 8.12251 10.7293 8.24064 11.7183 8.63105C12.7073 9.02146 13.4321 9.35581 13.8926 9.6321C14.3531 9.91239 14.7215 10.1466 14.9998 10.3368C16.6274 9.88387 18.3095 9.65618 19.999 9.66013C21.7188 9.66013 23.3846 9.88637 25.0003 10.3368L25.9893 9.71218C26.7501 9.25541 27.5525 8.87195 28.3858 8.56698C29.3068 8.21861 30.0075 8.12452 30.496 8.28068C31.2768 10.2427 31.3449 12.0126 30.7022 13.5923C32.0737 15.0678 32.7604 16.8557 32.7604 18.9579C32.7604 20.4334 32.5822 21.7408 32.2258 22.876C31.8715 24.0132 31.411 24.9242 30.8464 25.6109C30.2818 26.2976 29.5791 26.8722 28.7382 27.3427C27.8973 27.8112 27.0804 28.1495 26.2896 28.3578C25.4132 28.5821 24.5211 28.7394 23.6208 28.8283C24.5218 29.6091 24.9742 30.8404 24.9742 32.5241V38.7507C24.9742 39.045 25.0163 39.2832 25.1044 39.4654C25.1449 39.5532 25.2026 39.6319 25.2741 39.6969C25.3457 39.7619 25.4296 39.8119 25.5208 39.8438C25.713 39.9119 25.8812 39.9559 26.0293 39.972C26.1775 39.992 26.3897 39.998 26.666 39.998H32.5001C34.5663 39.998 36.3322 39.2652 37.7997 37.7977C39.2652 36.3321 40 34.5643 40 32.4981V7.49986C40 5.43369 39.2652 3.66784 37.7977 2.20029H37.7997Z" fill="#CE3DAE"/>
</svg>
